<?xml version="1.0" encoding="UTF-8"?>
<svg width="80px" height="80px" viewBox="0 0 80 80" version="1.1" xmlns="http://www.w3.org/2000/svg" xmlns:xlink="http://www.w3.org/1999/xlink">
    <title>icon</title>
    <defs>
        <path d="M27.390771,72 L27.390771,12.4333238 C27.390771,10.981651 26.6684016,10.2558255 25.2236411,10.2558255 L21.1783321,10.2558255 L21.1783321,2.02972074 L30.6173865,2.02972074 C32.8647916,2.02972074 34.4861096,2.52973387 35.481389,3.52977513 C36.4766684,4.5298164 36.9743007,6.07824416 36.9743007,8.17510488 L36.9743007,27.7242009 L36.7335085,31.8856421 L36.9743007,31.8856421 C38.290638,28.9822965 40.5701147,26.3854541 43.8127993,24.095037 C47.0554838,21.8046199 50.9562785,20.6594286 55.5153004,20.6594286 C66.8807492,20.6594286 72.5633884,27.0628225 72.5633884,39.8698026 L72.5633884,61.5963969 C72.5633884,63.0480697 73.2857578,63.7738952 74.7305182,63.7738952 L78.7758272,63.7738952 L78.7758272,72 L69.3849313,72 C67.1375262,72 65.5242345,71.5080516 64.545008,70.52414 C63.5657815,69.5402285 63.0761756,67.9192181 63.0761756,65.6610605 L63.0761756,42.0956898 C63.0761756,38.0632653 62.4180168,34.9502803 61.1016795,32.7566414 C59.7853422,30.5630025 57.297181,29.4661995 53.6371212,29.4661995 C49.880744,29.4661995 46.5738975,30.6113909 43.7164824,32.901808 C40.8590673,35.1922251 38.9006436,38.1761744 37.8411526,41.8537455 C37.2632484,43.5634935 36.9743007,45.7893584 36.9743007,48.531407 L36.9743007,72 L27.390771,72 Z" id="path-1"></path>
    </defs>
    <g id="icon" stroke="none" stroke-width="1" fill="none" fill-rule="evenodd">
        <g id="Group" transform="translate(0.000000, 5.000000)">
            <path d="M78.7977174,57.6702876 L78.7977174,73 L18.2756916,73 L18.2756916,72.8098657 C12.6921688,73.0397167 7.73749384,68.9988836 6.94341666,63.3487308 L0.914973523,20.4541291 C0.0694785295,14.4381196 4.26100869,8.87577119 10.2770182,8.03027619 L60.6327305,0.953242353 C66.64874,0.107747359 72.2110884,4.29927752 73.0565833,10.315287 L79.0850265,53.2098887 C79.3015153,54.7502864 79.1877692,56.2609415 78.7977174,57.6702876 Z" id="Combined-Shape" fill="#919191"></path>
            <g id="h">
                <use fill="#FFFFFF" fill-rule="evenodd" xlink:href="#path-1"></use>
                <path stroke="#FFFFFF" stroke-width="1" d="M37.3369575,30.1122599 C38.7384711,27.7507597 40.8027624,25.6089779 43.5243347,23.6866399 C46.8547329,21.3342677 50.8565151,20.1594286 55.5153004,20.1594286 C67.1710708,20.1594286 73.0633884,26.7990954 73.0633884,39.8698026 L73.0633884,61.5963969 C73.0633884,62.7724602 73.5624358,63.2738952 74.7305182,63.2738952 L79.2758272,63.2738952 L79.2758272,72.5 L69.3849313,72.5 C67.016702,72.5 65.2785291,71.969971 64.1906119,70.8768487 C63.1032329,69.7842672 62.5761756,68.0392609 62.5761756,65.6610605 L62.5761756,42.0956898 C62.5761756,38.1462712 61.9361341,35.1189782 60.6729463,33.0139114 C59.458264,30.9896777 57.1364444,29.9661995 53.6371212,29.9661995 C49.9936664,29.9661995 46.7972794,31.0731378 44.0292032,33.2919435 C41.2533226,35.517005 39.3528503,38.4126567 38.3148262,42.0138498 C37.7565022,43.6656692 37.4743007,45.8395651 37.4743007,48.531407 L37.4743007,72.5 L26.890771,72.5 L26.890771,12.4333238 C26.890771,11.2572606 26.3917236,10.7558255 25.2236411,10.7558255 L20.6783321,10.7558255 L20.6783321,1.52972074 L30.6173865,1.52972074 C32.9857907,1.52972074 34.7323588,2.06836091 35.8357852,3.17706651 C36.9362335,4.2827799 37.4743007,5.95702453 37.4743007,8.17510488 L37.4734658,27.7530839 L37.3369575,30.1122599 Z"></path>
            </g>
        </g>
    </g>
</svg>
